<?xml version="1.0" encoding="utf-8" standalone="no"?>
<!DOCTYPE svg PUBLIC "-//W3C//DTD SVG 1.1//EN"
  "http://www.w3.org/Graphics/SVG/1.1/DTD/svg11.dtd">
<svg height="725.04pt" version="1.1" viewBox="0 0 1382.4 725.04" width="1382.4pt" xmlns="http://www.w3.org/2000/svg" xmlns:xlink="http://www.w3.org/1999/xlink">
 <metadata>
  <rdf:RDF xmlns:cc="http://creativecommons.org/ns#" xmlns:dc="http://purl.org/dc/elements/1.1/" xmlns:rdf="http://www.w3.org/1999/02/22-rdf-syntax-ns#">
   <cc:Work>
    <dc:type rdf:resource="http://purl.org/dc/dcmitype/StillImage"/>
    <dc:date>2021-10-19T23:45:33.507829</dc:date>
    <dc:format>image/svg+xml</dc:format>
    <dc:creator>
     <cc:Agent>
      <dc:title>Matplotlib v3.4.1, https://matplotlib.org/</dc:title>
     </cc:Agent>
    </dc:creator>
   </cc:Work>
  </rdf:RDF>
 </metadata>
 <defs>
  <style type="text/css">*{stroke-linecap:butt;stroke-linejoin:round;}</style>
 </defs>
 <g id="figure_1">
  <g id="patch_1">
   <path d="M 0 725.04 
L 1382.4 725.04 
L 1382.4 0 
L 0 0 
z
" style="fill:#ffffff;"/>
  </g>
  <g id="axes_1">
   <g id="patch_2">
    <path d="M 172.8 645.2856 
L 1244.16 645.2856 
L 1244.16 87.0048 
L 172.8 87.0048 
z
" style="fill:#ffffff;"/>
   </g>
   <g id="matplotlib.axis_1"/>
   <g id="matplotlib.axis_2">
    <g id="ytick_1">
     <g id="line2d_1">
      <defs>
       <path d="M 0 0 
L -3.5 0 
" id="m59facb60d8" style="stroke:#000000;stroke-width:0.8;"/>
      </defs>
      <g>
       <use style="stroke:#000000;stroke-width:0.8;" x="172.8" xlink:href="#m59facb60d8" y="627.218953"/>
      </g>
     </g>
     <g id="text_1">
      <!-- 0 -->
      <g transform="translate(154.8056 633.784003)scale(0.1728 -0.1728)">
       <defs>
        <path d="M 2034 4250 
Q 1547 4250 1301 3770 
Q 1056 3291 1056 2328 
Q 1056 1369 1301 889 
Q 1547 409 2034 409 
Q 2525 409 2770 889 
Q 3016 1369 3016 2328 
Q 3016 3291 2770 3770 
Q 2525 4250 2034 4250 
z
M 2034 4750 
Q 2819 4750 3233 4129 
Q 3647 3509 3647 2328 
Q 3647 1150 3233 529 
Q 2819 -91 2034 -91 
Q 1250 -91 836 529 
Q 422 1150 422 2328 
Q 422 3509 836 4129 
Q 1250 4750 2034 4750 
z
" id="DejaVuSans-30" transform="scale(0.015625)"/>
       </defs>
       <use xlink:href="#DejaVuSans-30"/>
      </g>
     </g>
    </g>
    <g id="ytick_2">
     <g id="line2d_2">
      <g>
       <use style="stroke:#000000;stroke-width:0.8;" x="172.8" xlink:href="#m59facb60d8" y="514.472846"/>
      </g>
     </g>
     <g id="text_2">
      <!-- 50 -->
      <g transform="translate(143.8112 521.037896)scale(0.1728 -0.1728)">
       <defs>
        <path d="M 691 4666 
L 3169 4666 
L 3169 4134 
L 1269 4134 
L 1269 2991 
Q 1406 3038 1543 3061 
Q 1681 3084 1819 3084 
Q 2600 3084 3056 2656 
Q 3513 2228 3513 1497 
Q 3513 744 3044 326 
Q 2575 -91 1722 -91 
Q 1428 -91 1123 -41 
Q 819 9 494 109 
L 494 744 
Q 775 591 1075 516 
Q 1375 441 1709 441 
Q 2250 441 2565 725 
Q 2881 1009 2881 1497 
Q 2881 1984 2565 2268 
Q 2250 2553 1709 2553 
Q 1456 2553 1204 2497 
Q 953 2441 691 2322 
L 691 4666 
z
" id="DejaVuSans-35" transform="scale(0.015625)"/>
       </defs>
       <use xlink:href="#DejaVuSans-35"/>
       <use x="63.623047" xlink:href="#DejaVuSans-30"/>
      </g>
     </g>
    </g>
    <g id="ytick_3">
     <g id="line2d_3">
      <g>
       <use style="stroke:#000000;stroke-width:0.8;" x="172.8" xlink:href="#m59facb60d8" y="401.726739"/>
      </g>
     </g>
     <g id="text_3">
      <!-- 100 -->
      <g transform="translate(132.8168 408.291789)scale(0.1728 -0.1728)">
       <defs>
        <path d="M 794 531 
L 1825 531 
L 1825 4091 
L 703 3866 
L 703 4441 
L 1819 4666 
L 2450 4666 
L 2450 531 
L 3481 531 
L 3481 0 
L 794 0 
L 794 531 
z
" id="DejaVuSans-31" transform="scale(0.015625)"/>
       </defs>
       <use xlink:href="#DejaVuSans-31"/>
       <use x="63.623047" xlink:href="#DejaVuSans-30"/>
       <use x="127.246094" xlink:href="#DejaVuSans-30"/>
      </g>
     </g>
    </g>
    <g id="ytick_4">
     <g id="line2d_4">
      <g>
       <use style="stroke:#000000;stroke-width:0.8;" x="172.8" xlink:href="#m59facb60d8" y="288.980632"/>
      </g>
     </g>
     <g id="text_4">
      <!-- 150 -->
      <g transform="translate(132.8168 295.545682)scale(0.1728 -0.1728)">
       <use xlink:href="#DejaVuSans-31"/>
       <use x="63.623047" xlink:href="#DejaVuSans-35"/>
       <use x="127.246094" xlink:href="#DejaVuSans-30"/>
      </g>
     </g>
    </g>
    <g id="ytick_5">
     <g id="line2d_5">
      <g>
       <use style="stroke:#000000;stroke-width:0.8;" x="172.8" xlink:href="#m59facb60d8" y="176.234525"/>
      </g>
     </g>
     <g id="text_5">
      <!-- 200 -->
      <g transform="translate(132.8168 182.799575)scale(0.1728 -0.1728)">
       <defs>
        <path d="M 1228 531 
L 3431 531 
L 3431 0 
L 469 0 
L 469 531 
Q 828 903 1448 1529 
Q 2069 2156 2228 2338 
Q 2531 2678 2651 2914 
Q 2772 3150 2772 3378 
Q 2772 3750 2511 3984 
Q 2250 4219 1831 4219 
Q 1534 4219 1204 4116 
Q 875 4013 500 3803 
L 500 4441 
Q 881 4594 1212 4672 
Q 1544 4750 1819 4750 
Q 2544 4750 2975 4387 
Q 3406 4025 3406 3419 
Q 3406 3131 3298 2873 
Q 3191 2616 2906 2266 
Q 2828 2175 2409 1742 
Q 1991 1309 1228 531 
z
" id="DejaVuSans-32" transform="scale(0.015625)"/>
       </defs>
       <use xlink:href="#DejaVuSans-32"/>
       <use x="63.623047" xlink:href="#DejaVuSans-30"/>
       <use x="127.246094" xlink:href="#DejaVuSans-30"/>
      </g>
     </g>
    </g>
   </g>
   <g id="line2d_6">
    <path clip-path="url(#pdc154617af)" d="M 221.498182 500.797787 
L 233.984895 571.886446 
L 246.471608 548.406086 
L 258.958322 596.509714 
L 271.445035 565.739679 
L 283.931748 553.114215 
L 296.418462 488.737409 
L 308.905175 448.590921 
L 321.391888 543.385096 
L 333.878601 505.787524 
L 346.365315 582.472187 
L 358.852028 571.309122 
L 371.338741 519.712797 
L 383.825455 589.695382 
L 396.312168 587.109891 
L 408.798881 571.870025 
L 421.285594 591.500812 
L 433.772308 576.425764 
L 446.259021 511.138308 
L 458.745734 422.322098 
L 471.232448 524.941621 
L 483.719161 592.455803 
L 496.205874 523.093486 
L 508.692587 506.621752 
L 521.179301 497.562309 
L 533.666014 529.494379 
L 546.152727 583.713754 
L 558.639441 614.480458 
L 571.126154 601.285319 
L 583.612867 617.61808 
L 596.09958 404.796336 
L 608.586294 515.317322 
L 621.073007 587.749704 
L 633.55972 606.902723 
L 646.046434 611.809136 
L 658.533147 596.857809 
L 671.01986 585.659089 
L 683.506573 568.193598 
L 695.993287 589.83327 
L 708.48 617.100994 
L 720.966713 619.9092 
L 733.453427 608.356071 
L 745.94014 475.113041 
L 758.426853 461.339712 
L 770.913566 568.408336 
L 783.40028 413.114656 
L 795.886993 600.199687 
L 808.373706 584.579525 
L 820.86042 558.152972 
L 833.347133 508.785564 
L 845.833846 543.224913 
L 858.320559 607.542711 
L 870.807273 589.676857 
L 883.293986 614.95663 
L 895.780699 542.072419 
L 908.267413 556.141127 
L 920.754126 542.288285 
L 933.240839 609.137728 
L 945.727552 417.356244 
L 958.214266 497.513753 
L 970.700979 570.570502 
L 983.187692 506.019343 
L 995.674406 459.300672 
L 1008.161119 599.101936 
L 1020.647832 612.710417 
L 1033.134545 617.87463 
L 1045.621259 560.060553 
L 1058.107972 544.484322 
L 1070.594685 604.268925 
L 1083.081399 606.479477 
L 1095.568112 589.669185 
L 1108.054825 589.170701 
L 1120.541538 566.618978 
L 1133.028252 579.64375 
L 1145.514965 551.729205 
L 1158.001678 598.145225 
L 1170.488392 611.974796 
L 1182.975105 594.437472 
" style="fill:none;stroke:#1f77b4;stroke-linecap:square;stroke-width:1.5;"/>
   </g>
   <g id="line2d_7">
    <path clip-path="url(#pdc154617af)" d="M 221.498182 449.008882 
L 233.984895 447.183747 
L 246.471608 457.167531 
L 258.958322 490.341242 
L 271.445035 393.339734 
L 283.931748 393.820353 
L 296.418462 344.984854 
L 308.905175 346.13768 
L 321.391888 370.929893 
L 333.878601 466.721745 
L 346.365315 485.651434 
L 358.852028 472.121638 
L 371.338741 459.585104 
L 383.825455 509.024349 
L 396.312168 473.740945 
L 408.798881 423.958285 
L 421.285594 464.979708 
L 433.772308 444.634554 
L 446.259021 403.205228 
L 458.745734 323.866726 
L 471.232448 399.207936 
L 483.719161 471.149378 
L 496.205874 523.65076 
L 508.692587 452.228943 
L 521.179301 419.499005 
L 533.666014 417.75457 
L 546.152727 440.448323 
L 558.639441 483.037153 
L 571.126154 378.605529 
L 583.612867 460.489287 
L 596.09958 359.801788 
L 608.586294 307.565925 
L 621.073007 381.804287 
L 633.55972 524.755184 
L 646.046434 519.446117 
L 658.533147 538.958484 
L 671.01986 522.531457 
L 683.506573 468.246623 
L 695.993287 478.192508 
L 708.48 533.09242 
L 720.966713 484.06969 
L 733.453427 530.336639 
L 745.94014 415.542824 
L 758.426853 349.487655 
L 770.913566 379.608986 
L 783.40028 440.633576 
L 795.886993 509.089632 
L 808.373706 492.37143 
L 820.86042 440.338778 
L 833.347133 398.49042 
L 845.833846 412.789965 
L 858.320559 458.33701 
L 870.807273 356.617354 
L 883.293986 402.756312 
L 895.780699 367.781197 
L 908.267413 341.225431 
L 920.754126 343.233286 
L 933.240839 508.719472 
L 945.727552 478.150714 
L 958.214266 455.246961 
L 970.700979 460.548669 
L 983.187692 442.174131 
L 995.674406 353.937514 
L 1008.161119 376.035082 
L 1020.647832 425.579765 
L 1033.134545 386.550192 
L 1045.621259 409.053908 
L 1058.107972 410.266975 
L 1070.594685 450.421554 
L 1083.081399 498.105653 
L 1095.568112 543.955604 
L 1108.054825 527.037243 
L 1120.541538 484.139404 
L 1133.028252 498.728928 
L 1145.514965 450.478448 
L 1158.001678 506.075051 
L 1170.488392 459.845196 
L 1182.975105 508.346755 
L 1195.461818 316.084779 
" style="fill:none;stroke:#ff7f0e;stroke-linecap:square;stroke-width:1.5;"/>
   </g>
   <g id="line2d_8">
    <path clip-path="url(#pdc154617af)" d="M 258.958322 491.635922 
L 271.445035 484.974311 
L 283.931748 520.299464 
L 296.418462 350.27196 
L 308.905175 372.208485 
L 321.391888 330.247709 
L 333.878601 311.347654 
L 346.365315 257.254187 
L 358.852028 294.699251 
L 371.338741 201.092393 
L 383.825455 331.231613 
L 396.312168 507.456918 
L 408.798881 527.651192 
L 421.285594 543.669248 
L 433.772308 548.718528 
L 446.259021 442.521166 
L 458.745734 267.567928 
L 471.232448 338.131773 
L 483.719161 391.840737 
L 496.205874 377.020197 
L 508.692587 256.12463 
L 521.179301 119.146381 
L 533.666014 194.864171 
L 546.152727 330.599342 
L 558.639441 524.163955 
L 571.126154 550.143518 
L 583.612867 555.835216 
L 596.09958 336.629231 
L 608.586294 319.43883 
L 621.073007 463.682553 
L 633.55972 528.028567 
L 646.046434 542.956269 
L 658.533147 526.307557 
L 671.01986 461.002347 
L 683.506573 397.746643 
L 695.993287 425.716535 
L 708.48 544.820477 
L 720.966713 564.767621 
L 733.453427 562.946757 
L 745.94014 393.506695 
L 758.426853 396.908139 
L 770.913566 472.843126 
L 783.40028 254.226614 
L 795.886993 404.082528 
L 808.373706 332.336748 
L 820.86042 225.849799 
L 833.347133 154.884831 
L 845.833846 230.636256 
L 858.320559 479.010551 
L 870.807273 507.622451 
L 883.293986 565.268737 
L 895.780699 553.315013 
L 908.267413 511.42976 
L 920.754126 471.537259 
L 933.240839 513.686764 
L 945.727552 385.571177 
L 958.214266 112.3812 
L 970.700979 185.56927 
L 983.187692 245.235493 
L 995.674406 218.125259 
L 1008.161119 457.018448 
L 1020.647832 561.463991 
L 1033.134545 571.655808 
L 1045.621259 551.474936 
L 1058.107972 550.842328 
L 1070.594685 548.980904 
L 1083.081399 548.138706 
L 1095.568112 495.347809 
L 1108.054825 491.628765 
L 1120.541538 450.333986 
L 1133.028252 372.344411 
L 1145.514965 460.614583 
L 1158.001678 543.58473 
L 1170.488392 567.303674 
L 1182.975105 569.398048 
L 1195.461818 461.20049 
" style="fill:none;stroke:#2ca02c;stroke-linecap:square;stroke-width:1.5;"/>
   </g>
   <g id="patch_3">
    <path d="M 172.8 645.2856 
L 172.8 87.0048 
" style="fill:none;stroke:#000000;stroke-linecap:square;stroke-linejoin:miter;stroke-width:0.8;"/>
   </g>
   <g id="patch_4">
    <path d="M 1244.16 645.2856 
L 1244.16 87.0048 
" style="fill:none;stroke:#000000;stroke-linecap:square;stroke-linejoin:miter;stroke-width:0.8;"/>
   </g>
   <g id="patch_5">
    <path d="M 172.8 645.2856 
L 1244.16 645.2856 
" style="fill:none;stroke:#000000;stroke-linecap:square;stroke-linejoin:miter;stroke-width:0.8;"/>
   </g>
   <g id="patch_6">
    <path d="M 172.8 87.0048 
L 1244.16 87.0048 
" style="fill:none;stroke:#000000;stroke-linecap:square;stroke-linejoin:miter;stroke-width:0.8;"/>
   </g>
   <g id="legend_1">
    <g id="patch_7">
     <path d="M 1087.2792 176.9202 
L 1232.064 176.9202 
Q 1235.52 176.9202 1235.52 173.4642 
L 1235.52 99.1008 
Q 1235.52 95.6448 1232.064 95.6448 
L 1087.2792 95.6448 
Q 1083.8232 95.6448 1083.8232 99.1008 
L 1083.8232 173.4642 
Q 1083.8232 176.9202 1087.2792 176.9202 
z
" style="fill:#ffffff;opacity:0.8;stroke:#cccccc;stroke-linejoin:miter;"/>
    </g>
    <g id="line2d_9">
     <path d="M 1090.7352 109.6389 
L 1125.2952 109.6389 
" style="fill:none;stroke:#1f77b4;stroke-linecap:square;stroke-width:1.5;"/>
    </g>
    <g id="line2d_10"/>
    <g id="text_6">
     <!-- P (mm) -->
     <g transform="translate(1139.1192 115.6869)scale(0.1728 -0.1728)">
      <defs>
       <path d="M 1259 4147 
L 1259 2394 
L 2053 2394 
Q 2494 2394 2734 2622 
Q 2975 2850 2975 3272 
Q 2975 3691 2734 3919 
Q 2494 4147 2053 4147 
L 1259 4147 
z
M 628 4666 
L 2053 4666 
Q 2838 4666 3239 4311 
Q 3641 3956 3641 3272 
Q 3641 2581 3239 2228 
Q 2838 1875 2053 1875 
L 1259 1875 
L 1259 0 
L 628 0 
L 628 4666 
z
" id="DejaVuSans-50" transform="scale(0.015625)"/>
       <path id="DejaVuSans-20" transform="scale(0.015625)"/>
       <path d="M 1984 4856 
Q 1566 4138 1362 3434 
Q 1159 2731 1159 2009 
Q 1159 1288 1364 580 
Q 1569 -128 1984 -844 
L 1484 -844 
Q 1016 -109 783 600 
Q 550 1309 550 2009 
Q 550 2706 781 3412 
Q 1013 4119 1484 4856 
L 1984 4856 
z
" id="DejaVuSans-28" transform="scale(0.015625)"/>
       <path d="M 3328 2828 
Q 3544 3216 3844 3400 
Q 4144 3584 4550 3584 
Q 5097 3584 5394 3201 
Q 5691 2819 5691 2113 
L 5691 0 
L 5113 0 
L 5113 2094 
Q 5113 2597 4934 2840 
Q 4756 3084 4391 3084 
Q 3944 3084 3684 2787 
Q 3425 2491 3425 1978 
L 3425 0 
L 2847 0 
L 2847 2094 
Q 2847 2600 2669 2842 
Q 2491 3084 2119 3084 
Q 1678 3084 1418 2786 
Q 1159 2488 1159 1978 
L 1159 0 
L 581 0 
L 581 3500 
L 1159 3500 
L 1159 2956 
Q 1356 3278 1631 3431 
Q 1906 3584 2284 3584 
Q 2666 3584 2933 3390 
Q 3200 3197 3328 2828 
z
" id="DejaVuSans-6d" transform="scale(0.015625)"/>
       <path d="M 513 4856 
L 1013 4856 
Q 1481 4119 1714 3412 
Q 1947 2706 1947 2009 
Q 1947 1309 1714 600 
Q 1481 -109 1013 -844 
L 513 -844 
Q 928 -128 1133 580 
Q 1338 1288 1338 2009 
Q 1338 2731 1133 3434 
Q 928 4138 513 4856 
z
" id="DejaVuSans-29" transform="scale(0.015625)"/>
      </defs>
      <use xlink:href="#DejaVuSans-50"/>
      <use x="60.302734" xlink:href="#DejaVuSans-20"/>
      <use x="92.089844" xlink:href="#DejaVuSans-28"/>
      <use x="131.103516" xlink:href="#DejaVuSans-6d"/>
      <use x="228.515625" xlink:href="#DejaVuSans-6d"/>
      <use x="325.927734" xlink:href="#DejaVuSans-29"/>
     </g>
    </g>
    <g id="line2d_11">
     <path d="M 1090.7352 135.0027 
L 1125.2952 135.0027 
" style="fill:none;stroke:#ff7f0e;stroke-linecap:square;stroke-width:1.5;"/>
    </g>
    <g id="line2d_12"/>
    <g id="text_7">
     <!-- ET (mm) -->
     <g transform="translate(1139.1192 141.0507)scale(0.1728 -0.1728)">
      <defs>
       <path d="M 628 4666 
L 3578 4666 
L 3578 4134 
L 1259 4134 
L 1259 2753 
L 3481 2753 
L 3481 2222 
L 1259 2222 
L 1259 531 
L 3634 531 
L 3634 0 
L 628 0 
L 628 4666 
z
" id="DejaVuSans-45" transform="scale(0.015625)"/>
       <path d="M -19 4666 
L 3928 4666 
L 3928 4134 
L 2272 4134 
L 2272 0 
L 1638 0 
L 1638 4134 
L -19 4134 
L -19 4666 
z
" id="DejaVuSans-54" transform="scale(0.015625)"/>
      </defs>
      <use xlink:href="#DejaVuSans-45"/>
      <use x="63.183594" xlink:href="#DejaVuSans-54"/>
      <use x="124.267578" xlink:href="#DejaVuSans-20"/>
      <use x="156.054688" xlink:href="#DejaVuSans-28"/>
      <use x="195.068359" xlink:href="#DejaVuSans-6d"/>
      <use x="292.480469" xlink:href="#DejaVuSans-6d"/>
      <use x="389.892578" xlink:href="#DejaVuSans-29"/>
     </g>
    </g>
    <g id="line2d_13">
     <path d="M 1090.7352 160.3665 
L 1125.2952 160.3665 
" style="fill:none;stroke:#2ca02c;stroke-linecap:square;stroke-width:1.5;"/>
    </g>
    <g id="line2d_14"/>
    <g id="text_8">
     <!-- SSM (mm) -->
     <g transform="translate(1139.1192 166.4145)scale(0.1728 -0.1728)">
      <defs>
       <path d="M 3425 4513 
L 3425 3897 
Q 3066 4069 2747 4153 
Q 2428 4238 2131 4238 
Q 1616 4238 1336 4038 
Q 1056 3838 1056 3469 
Q 1056 3159 1242 3001 
Q 1428 2844 1947 2747 
L 2328 2669 
Q 3034 2534 3370 2195 
Q 3706 1856 3706 1288 
Q 3706 609 3251 259 
Q 2797 -91 1919 -91 
Q 1588 -91 1214 -16 
Q 841 59 441 206 
L 441 856 
Q 825 641 1194 531 
Q 1563 422 1919 422 
Q 2459 422 2753 634 
Q 3047 847 3047 1241 
Q 3047 1584 2836 1778 
Q 2625 1972 2144 2069 
L 1759 2144 
Q 1053 2284 737 2584 
Q 422 2884 422 3419 
Q 422 4038 858 4394 
Q 1294 4750 2059 4750 
Q 2388 4750 2728 4690 
Q 3069 4631 3425 4513 
z
" id="DejaVuSans-53" transform="scale(0.015625)"/>
       <path d="M 628 4666 
L 1569 4666 
L 2759 1491 
L 3956 4666 
L 4897 4666 
L 4897 0 
L 4281 0 
L 4281 4097 
L 3078 897 
L 2444 897 
L 1241 4097 
L 1241 0 
L 628 0 
L 628 4666 
z
" id="DejaVuSans-4d" transform="scale(0.015625)"/>
      </defs>
      <use xlink:href="#DejaVuSans-53"/>
      <use x="63.476562" xlink:href="#DejaVuSans-53"/>
      <use x="126.953125" xlink:href="#DejaVuSans-4d"/>
      <use x="213.232422" xlink:href="#DejaVuSans-20"/>
      <use x="245.019531" xlink:href="#DejaVuSans-28"/>
      <use x="284.033203" xlink:href="#DejaVuSans-6d"/>
      <use x="381.445312" xlink:href="#DejaVuSans-6d"/>
      <use x="478.857422" xlink:href="#DejaVuSans-29"/>
     </g>
    </g>
   </g>
  </g>
 </g>
 <defs>
  <clipPath id="pdc154617af">
   <rect height="558.2808" width="1071.36" x="172.8" y="87.0048"/>
  </clipPath>
 </defs>
</svg>
